<?xml version="1.0" encoding="UTF-8" standalone="no"?>
<!DOCTYPE svg PUBLIC "-//W3C//DTD SVG 1.1//EN" "http://www.w3.org/Graphics/SVG/1.1/DTD/svg11.dtd">
<svg width="100%" height="100%" viewBox="0 0 339 87" version="1.1" xmlns="http://www.w3.org/2000/svg" xmlns:xlink="http://www.w3.org/1999/xlink" xml:space="preserve" xmlns:serif="http://www.serif.com/" style="fill-rule:evenodd;clip-rule:evenodd;stroke-linejoin:round;stroke-miterlimit:2;">
    <g transform="matrix(1,0,0,1,-1524.08,-320.291)">
        <g id="With-dot" serif:id="With dot" transform="matrix(0.701677,0,0,0.180088,610.315,319.595)">
            <rect x="1302.26" y="3.867" width="481.969" height="481.969" style="fill:none;"/>
            <g transform="matrix(0.5004,0,0,1.94971,1146.95,-894.51)">
                <path d="M363.019,622.196C346.653,614.27 335.661,572.989 335.661,553.599C335.661,542.238 344.054,534.785 350.558,526.474C359.522,515.02 368.958,504.644 384.616,504.644C392.872,504.644 400.654,506.692 407.48,510.308C418.65,516.224 427.261,526.337 431.207,538.539C431.654,541.171 432.263,543.748 433.023,546.259C438.314,563.731 452.742,575.977 469.107,583.52C461.34,592.892 447.871,601.155 434.979,602.417C433.392,602.573 431.784,602.652 430.157,602.652C421.901,602.652 414.119,600.604 407.293,596.988C400.512,600.543 392.797,602.554 384.616,602.554C376.988,602.554 369.458,625.313 363.019,622.196Z" style="fill:rgb(211,96,23);"/>
                <path d="M430.872,604.138C430.424,604.229 425.734,604.129 431.653,631.313C442.838,682.684 400.028,706.658 399.025,705.7C390.818,697.863 363.06,637.071 363.06,615.201C363.06,609.462 364.282,604.006 366.481,599.08C372.662,585.235 386.554,575.576 402.685,575.576C404.903,575.576 407.079,575.758 409.198,576.109L409.202,576.084C409.202,576.084 466.47,585.193 467.3,585.575C457.874,599.637 441.725,601.934 430.872,604.138Z" style="fill:rgb(241,204,175);"/>
                <path d="M380.376,463.645C380.376,463.645 413.04,495.439 374.618,559.38C367.193,575.005 360.082,583.664 359.668,600.289C359.242,617.402 369.458,636.899 373.458,641.614C397.804,670.306 399.023,705.625 399.023,705.625C399.023,705.625 318.491,668.897 317.279,594.666C316.418,541.982 381.385,482.607 380.376,463.645Z" style="fill:rgb(255,115,31);"/>
            </g>
            <g transform="matrix(4.46897,0,0,8.21682,-5613.08,-1008.81)">
                <path d="M1580.14,167.162L1577.17,156.458C1578.72,154.958 1579.75,151.714 1579.75,148.186C1579.75,145.591 1579.31,143.361 1578.45,141.536C1577.59,139.712 1576.54,138.779 1575.3,138.779L1569.94,138.779L1569.94,167.162L1572.58,167.162L1572.58,157.309L1574.59,157.309L1577.29,167.162L1580.14,167.162ZM1575.3,144.01C1576.29,144.01 1577.11,145.875 1577.11,148.186C1577.11,150.497 1576.29,152.403 1575.3,152.403L1572.58,152.403L1572.58,144.01L1575.3,144.01Z" style="fill:rgb(40,40,40);fill-rule:nonzero;"/>
                <g transform="matrix(1,0,0,1,-0.216852,0)">
                    <path d="M1590.47,159.175C1590.53,158.404 1590.56,157.715 1590.56,157.026C1590.56,153.985 1590.11,151.471 1589.19,149.403C1588.29,147.335 1587.12,146.321 1585.72,146.321C1584.25,146.321 1583.03,147.335 1582.09,149.403C1581.15,151.43 1580.67,153.985 1580.67,157.026C1580.67,160.107 1581.15,162.662 1582.11,164.689C1583.06,166.716 1584.33,167.73 1585.91,167.73C1587.75,167.73 1589.15,166.27 1590.09,163.391L1588.1,160.959C1587.62,162.297 1586.89,162.986 1585.95,162.986C1584.48,162.986 1583.58,161.729 1583.26,159.175L1590.47,159.175ZM1583.22,155.12C1583.5,152.525 1584.4,151.025 1585.72,151.025C1586.85,151.025 1587.81,152.363 1588.1,155.12L1583.22,155.12Z" style="fill:rgb(40,40,40);fill-rule:nonzero;"/>
                </g>
                <g transform="matrix(1,0,0,1,0.0574021,0)">
                    <path d="M1597.45,146.321C1596.11,146.321 1595.08,147.294 1594.35,149.281L1594.35,138.779L1591.88,138.779L1591.88,167.162L1594.35,167.162L1594.35,164.77C1595.08,166.757 1596.11,167.73 1597.45,167.73C1598.73,167.73 1599.84,166.716 1600.74,164.648C1601.66,162.581 1602.12,160.026 1602.12,157.026C1602.12,154.025 1601.66,151.511 1600.74,149.443C1599.84,147.375 1598.73,146.321 1597.45,146.321ZM1595.1,161.161C1594.6,160.067 1594.35,158.688 1594.35,157.026C1594.35,155.363 1594.6,153.985 1595.1,152.93C1595.6,151.836 1596.23,151.308 1596.99,151.308C1597.76,151.308 1598.39,151.836 1598.89,152.93C1599.4,153.985 1599.65,155.363 1599.65,157.026C1599.65,158.688 1599.4,160.067 1598.89,161.161C1598.39,162.216 1597.76,162.743 1596.99,162.743C1596.23,162.743 1595.6,162.216 1595.1,161.161Z" style="fill:rgb(40,40,40);fill-rule:nonzero;"/>
                </g>
                <g transform="matrix(1,0,0,1,0.491107,0)">
                    <path d="M1612.76,159.175C1612.82,158.404 1612.86,157.715 1612.86,157.026C1612.86,153.985 1612.4,151.471 1611.48,149.403C1610.58,147.335 1609.41,146.321 1608.01,146.321C1606.54,146.321 1605.32,147.335 1604.38,149.403C1603.44,151.43 1602.96,153.985 1602.96,157.026C1602.96,160.107 1603.44,162.662 1604.4,164.689C1605.36,166.716 1606.62,167.73 1608.2,167.73C1610.04,167.73 1611.44,166.27 1612.38,163.391L1610.39,160.959C1609.91,162.297 1609.18,162.986 1608.24,162.986C1606.77,162.986 1605.87,161.729 1605.55,159.175L1612.76,159.175ZM1605.51,155.12C1605.8,152.525 1606.69,151.025 1608.01,151.025C1609.14,151.025 1610.1,152.363 1610.39,155.12L1605.51,155.12Z" style="fill:rgb(40,40,40);fill-rule:nonzero;"/>
                </g>
                <g transform="matrix(1,0,0,1,0.765361,0)">
                    <rect x="1614.17" y="137.563" width="2.468" height="29.6" style="fill:rgb(40,40,40);fill-rule:nonzero;"/>
                </g>
                <g transform="matrix(1,0,0,1,1.23096,0)">
                    <path d="M1623.65,138.212C1620.66,137.847 1619.15,140.969 1619.15,146.686L1619.15,146.889L1617.77,146.889L1617.77,151.917L1619.15,151.917L1619.15,167.162L1621.62,167.162L1621.62,151.917L1623.65,151.917L1623.65,146.889L1621.62,146.889L1621.62,146.686C1621.62,144.172 1622.29,143.037 1623.65,143.239L1623.65,138.212Z" style="fill:rgb(40,40,40);fill-rule:nonzero;"/>
                </g>
                <g transform="matrix(1,0,0,1,1.63915,0)">
                    <path d="M1632.53,164.648C1633.5,162.581 1634,160.026 1634,157.026C1634,154.025 1633.5,151.511 1632.53,149.443C1631.55,147.375 1630.34,146.321 1628.93,146.321C1627.51,146.321 1626.31,147.375 1625.33,149.443C1624.36,151.511 1623.88,154.025 1623.88,157.026C1623.88,160.026 1624.36,162.581 1625.33,164.648C1626.31,166.716 1627.51,167.73 1628.93,167.73C1630.34,167.73 1631.55,166.716 1632.53,164.648ZM1627.07,161.04C1626.59,159.986 1626.35,158.647 1626.35,157.026C1626.35,155.404 1626.59,154.066 1627.07,153.011C1627.57,151.957 1628.18,151.43 1628.93,151.43C1629.67,151.43 1630.29,151.957 1630.78,153.011C1631.28,154.066 1631.53,155.404 1631.53,157.026C1631.53,158.647 1631.28,159.986 1630.78,161.04C1630.29,162.094 1629.67,162.621 1628.93,162.621C1628.18,162.621 1627.57,162.094 1627.07,161.04Z" style="fill:rgb(40,40,40);fill-rule:nonzero;"/>
                </g>
                <g transform="matrix(1,0,0,1,1.333,0)">
                    <path d="M1640.66,156.782L1644.01,146.889L1641.17,146.889L1639.24,152.606L1637.31,146.889L1634.46,146.889L1637.81,156.823L1634.3,167.162L1637.15,167.162L1639.24,160.999L1641.31,167.162L1644.16,167.162L1640.66,156.782Z" style="fill:rgb(40,40,40);fill-rule:nonzero;"/>
                </g>
            </g>
            <g transform="matrix(1.96906,0,0,7.67202,-1873.38,-2087.31)">
                <circle cx="1842.62" cy="314.397" r="5.317" style="fill:rgb(255,115,31);"/>
            </g>
        </g>
    </g>
</svg>
